<svg width="65" height="24" viewBox="0 0 65 24" fill="none" xmlns="http://www.w3.org/2000/svg">
<rect x="0.5" y="0.5" width="64" height="23" fill="white"/>
<path d="M8 6.228H9.62V16.152H12.044V17.772H8V6.228Z" fill="#353535"/>
<path d="M15.5803 6.42C15.5803 7.124 15.3443 7.724 14.8723 8.22C14.4003 8.716 13.8283 8.964 13.1562 8.964V8.16C13.3562 8.16 13.5403 7.948 13.7083 7.524C13.8763 7.1 13.9602 6.732 13.9602 6.42V6H15.5803V6.42Z" fill="#353535"/>
<path d="M20.7862 16.164V17.784H16.7422V9.468H19.9822V11.088H18.3622V12.708H20.7862V14.316H18.3622V16.164H20.7862ZM20.3782 7.5L17.1502 8.832V7.344L20.3782 6V7.5Z" fill="#353535"/>
<path d="M23.8466 7.848V14.544H24.6506C24.8746 14.544 25.0626 14.452 25.2146 14.268C25.3746 14.084 25.4546 13.868 25.4546 13.62V8.772C25.4546 8.516 25.3746 8.3 25.2146 8.124C25.0626 7.94 24.8746 7.848 24.6506 7.848H23.8466ZM24.7346 6.228C25.3826 6.252 25.9346 6.512 26.3906 7.008C26.8466 7.496 27.0746 8.084 27.0746 8.772V13.62C27.0746 14.316 26.8386 14.912 26.3666 15.408C25.8946 15.904 25.3226 16.152 24.6506 16.152H23.8466V17.772H22.2266V6.228H24.7346Z" fill="#353535"/>
<path d="M28.5195 6.228H30.1395V17.772H28.5195V6.228Z" fill="#353535"/>
<path d="M31.5781 8.544C31.5781 7.84 31.8141 7.24 32.2861 6.744C32.7581 6.248 33.3301 6 34.0021 6C34.6741 6 35.2461 6.248 35.7181 6.744C36.1901 7.24 36.4261 7.84 36.4261 8.544V9.456H34.8061V8.544C34.8061 8.288 34.7261 8.072 34.5661 7.896C34.4141 7.712 34.2261 7.62 34.0021 7.62C33.7781 7.62 33.5861 7.712 33.4261 7.896C33.2741 8.072 33.1981 8.288 33.1981 8.544V15.456C33.1981 15.712 33.2741 15.928 33.4261 16.104C33.5861 16.288 33.7781 16.38 34.0021 16.38C34.2261 16.38 34.4141 16.288 34.5661 16.104C34.7261 15.928 34.8061 15.712 34.8061 15.456V14.544H36.4261V15.456C36.4261 16.16 36.1901 16.76 35.7181 17.256C35.2461 17.752 34.6741 18 34.0021 18C33.3301 18 32.7581 17.752 32.2861 17.256C31.8141 16.76 31.5781 16.16 31.5781 15.456V8.544Z" fill="#353535"/>
<path d="M41.9151 16.152V17.772H37.8711V6.228H41.1111V7.848H39.4911V9.456H41.9151V11.076H39.4911V16.152H41.9151Z" fill="#353535"/>
<path d="M44.9755 7.848V14.544H45.7795C46.0035 14.544 46.1915 14.452 46.3435 14.268C46.5035 14.084 46.5835 13.868 46.5835 13.62V8.772C46.5835 8.516 46.5035 8.3 46.3435 8.124C46.1915 7.94 46.0035 7.848 45.7795 7.848H44.9755ZM45.8635 6.228C46.5115 6.252 47.0635 6.512 47.5195 7.008C47.9755 7.496 48.2035 8.084 48.2035 8.772V13.62C48.2035 14.34 47.9515 14.952 47.4475 15.456L48.2035 17.772H46.4995L45.9835 16.14C45.9195 16.148 45.8555 16.152 45.7915 16.152H44.9755V17.772H43.3555V6.228H45.8635Z" fill="#353535"/>
<path d="M49.6484 6.228H51.2684V17.772H49.6484V6.228Z" fill="#353535"/>
<path d="M56.751 16.152V17.772H52.707V6.228H55.947V7.848H54.327V9.456H56.751V11.076H54.327V16.152H56.751Z" fill="#353535"/>
<rect x="0.5" y="0.5" width="64" height="23" stroke="#353535"/>
</svg>
