<svg width="38" height="37" viewBox="0 0 38 37" fill="none" xmlns="http://www.w3.org/2000/svg">
<rect x="0.5" y="0.5" width="37" height="36" fill="white"/>
<path d="M6 6.228H7.62V16.152H10.044V17.772H6V6.228Z" fill="#353535"/>
<path d="M13.5803 6.42C13.5803 7.124 13.3443 7.724 12.8723 8.22C12.4003 8.716 11.8283 8.964 11.1562 8.964V8.16C11.3562 8.16 11.5403 7.948 11.7083 7.524C11.8763 7.1 11.9602 6.732 11.9602 6.42V6H13.5803V6.42Z" fill="#353535"/>
<path d="M18.7862 16.164V17.784H14.7422V9.468H17.9822V11.088H16.3622V12.708H18.7862V14.316H16.3622V16.164H18.7862ZM18.3782 7.5L15.1502 8.832V7.344L18.3782 6V7.5Z" fill="#353535"/>
<path d="M21.8466 7.848V14.544H22.6506C22.8746 14.544 23.0626 14.452 23.2146 14.268C23.3746 14.084 23.4546 13.868 23.4546 13.62V8.772C23.4546 8.516 23.3746 8.3 23.2146 8.124C23.0626 7.94 22.8746 7.848 22.6506 7.848H21.8466ZM22.7346 6.228C23.3826 6.252 23.9346 6.512 24.3906 7.008C24.8466 7.496 25.0746 8.084 25.0746 8.772V13.62C25.0746 14.316 24.8386 14.912 24.3666 15.408C23.8946 15.904 23.3226 16.152 22.6506 16.152H21.8466V17.772H20.2266V6.228H22.7346Z" fill="#353535"/>
<path d="M26.5195 6.228H28.1395V17.772H26.5195V6.228Z" fill="#353535"/>
<path d="M6 21.544C6 20.84 6.236 20.24 6.708 19.744C7.18 19.248 7.752 19 8.424 19C9.096 19 9.668 19.248 10.14 19.744C10.612 20.24 10.848 20.84 10.848 21.544V22.456H9.228V21.544C9.228 21.288 9.148 21.072 8.988 20.896C8.836 20.712 8.648 20.62 8.424 20.62C8.2 20.62 8.008 20.712 7.848 20.896C7.696 21.072 7.62 21.288 7.62 21.544V28.456C7.62 28.712 7.696 28.928 7.848 29.104C8.008 29.288 8.2 29.38 8.424 29.38C8.648 29.38 8.836 29.288 8.988 29.104C9.148 28.928 9.228 28.712 9.228 28.456V27.544H10.848V28.456C10.848 29.16 10.612 29.76 10.14 30.256C9.668 30.752 9.096 31 8.424 31C7.752 31 7.18 30.752 6.708 30.256C6.236 29.76 6 29.16 6 28.456V21.544Z" fill="#353535"/>
<path d="M16.337 29.152V30.772H12.293V19.228H15.533V20.848H13.913V22.456H16.337V24.076H13.913V29.152H16.337Z" fill="#353535"/>
<path d="M19.3973 20.848V27.544H20.2013C20.4253 27.544 20.6133 27.452 20.7653 27.268C20.9253 27.084 21.0053 26.868 21.0053 26.62V21.772C21.0053 21.516 20.9253 21.3 20.7653 21.124C20.6133 20.94 20.4253 20.848 20.2013 20.848H19.3973ZM20.2853 19.228C20.9333 19.252 21.4853 19.512 21.9413 20.008C22.3973 20.496 22.6253 21.084 22.6253 21.772V26.62C22.6253 27.34 22.3733 27.952 21.8693 28.456L22.6253 30.772H20.9213L20.4053 29.14C20.3413 29.148 20.2773 29.152 20.2133 29.152H19.3973V30.772H17.7773V19.228H20.2853Z" fill="#353535"/>
<path d="M24.0703 19.228H25.6903V30.772H24.0703V19.228Z" fill="#353535"/>
<path d="M31.1729 29.152V30.772H27.1289V19.228H30.3689V20.848H28.7489V22.456H31.1729V24.076H28.7489V29.152H31.1729Z" fill="#353535"/>
<rect x="0.5" y="0.5" width="37" height="36" stroke="#353535"/>
</svg>
